<?xml version="1.0" encoding="UTF-8"?>
<svg version="1.1" xmlns="http://www.w3.org/2000/svg" width="500" height="500">
<path d="M0 0 C165 0 330 0 500 0 C500 165 500 330 500 500 C335 500 170 500 0 500 C0 335 0 170 0 0 Z " fill="#F5F3F0" transform="translate(0,0)"/>
<path d="M0 0 C0.97685365 4.0730403 1.11545444 7.868207 1.09765625 12.05078125 C1.0962413 12.70958786 1.09482635 13.36839447 1.09336853 14.04716492 C1.087805 16.13565762 1.07525947 18.22404011 1.0625 20.3125 C1.05748028 21.73502449 1.0529182 23.15755066 1.04882812 24.58007812 C1.03784757 28.05342077 1.02060835 31.52669961 1 35 C-0.8996582 34.64819336 -0.8996582 34.64819336 -3 34 C-4.60546875 31.62890625 -4.60546875 31.62890625 -6.1875 28.5625 C-14.52870045 13.60158089 -27.25031081 2.86436684 -43.66015625 -2.109375 C-56.63063719 -5.19773021 -71.73003004 -4.43966987 -83.25 2.3203125 C-89.08647429 6.24705807 -92.78077334 11.34232002 -95 18 C-95.98497 26.80014182 -93.87738091 34.47592599 -88.625 41.625 C-76.12646247 54.83508794 -53.76976787 60.15048888 -37.125 65.5625 C-19.73369505 71.25782048 -2.87983383 77.73854084 6 95 C11.39350052 107.2430411 9.63641794 120.43122966 5.00390625 132.62109375 C-0.64775319 145.15643528 -11.69246556 155.02358463 -24.42529297 160.09082031 C-34.65826972 163.70428565 -44.593231 164.47107517 -55.375 164.375 C-56.66921875 164.38660156 -57.9634375 164.39820313 -59.296875 164.41015625 C-75.75117215 164.36089189 -91.74092508 160.5903589 -106.6875 153.6875 C-108.42580078 152.88892578 -108.42580078 152.88892578 -110.19921875 152.07421875 C-113.892622 149.33893685 -114.0125483 147.44506638 -115 143 C-115.34489439 140.22328611 -115.50477234 137.45445232 -115.6328125 134.66015625 C-115.67437469 133.89319931 -115.71593689 133.12624237 -115.75875854 132.33604431 C-115.88840355 129.91185594 -116.00688294 127.48727458 -116.125 125.0625 C-116.2114991 123.40816424 -116.29873156 121.75386666 -116.38671875 120.09960938 C-116.59962499 116.06679789 -116.80252685 112.03359544 -117 108 C-115.68 108 -114.36 108 -113 108 C-112.443125 109.11117187 -111.88625 110.22234375 -111.3125 111.3671875 C-106.93689583 119.95605009 -102.55640067 127.8452482 -96 135 C-95.32582031 135.76570312 -94.65164062 136.53140625 -93.95703125 137.3203125 C-85.78659676 146.10092516 -75.39335493 152.31847375 -64 156 C-63.01773438 156.33644531 -63.01773438 156.33644531 -62.015625 156.6796875 C-50.59486383 159.91114318 -36.52966582 159.50570762 -26 154 C-25.19046875 153.5875 -24.3809375 153.175 -23.546875 152.75 C-16.96931491 148.91671995 -12.73109809 143.31011686 -10.36328125 136.046875 C-8.67261297 126.52095908 -10.0681366 118.18039777 -15.25 110.03515625 C-26.18816706 95.83418367 -49.25456644 91.05234566 -65.55297852 85.75268555 C-81.94706458 80.40310436 -100.18192964 74.14353554 -109.0390625 58.0625 C-113.7502885 47.9506003 -114.93687413 36.37502073 -112.0859375 25.51953125 C-106.78733486 12.03373292 -97.23012937 2.27055177 -84.05712891 -3.69189453 C-58.18112035 -14.50053877 -25.39586098 -9.93043282 0 0 Z " fill="#608C97" transform="translate(294,147)"/>
<path d="M0 0 C16.17 0 32.34 0 49 0 C49 0.66 49 1.32 49 2 C48.40832031 2.09796875 47.81664062 2.1959375 47.20703125 2.296875 C42.16626836 3.25075509 38.68851724 4.19970951 35 8 C32.96169004 11.26318225 32.746209 13.81717749 32.73498535 17.6325531 C32.72671219 18.78041794 32.71843903 19.92828278 32.70991516 21.1109314 C32.71089706 22.36652863 32.71187897 23.62212585 32.71289062 24.91577148 C32.70686433 26.25486161 32.69993956 27.59394795 32.69218445 28.93302917 C32.67729963 31.8162338 32.66854705 34.69936921 32.66447449 37.58260918 C32.65774735 42.15264127 32.63597247 46.72252641 32.61193848 51.29249573 C32.56297003 61.00746261 32.53070938 70.72246089 32.5 80.4375 C32.46686314 90.89604274 32.43066878 101.35452799 32.37586927 111.8129831 C32.35268829 116.3437449 32.33882136 120.87440573 32.33237457 125.40522087 C32.32637706 128.24331268 32.31222956 131.08132432 32.29603004 133.91937447 C32.28748254 135.83600212 32.28856391 137.75266542 32.29008484 139.66931152 C32.16955733 156.76169714 29.42307339 172.23924605 17.19140625 184.8671875 C7.77014298 193.70080658 -3.2576416 197.3668616 -16 197.3125 C-17.13308594 197.33666992 -17.13308594 197.33666992 -18.2890625 197.36132812 C-23.81999679 197.36607979 -27.92173275 196.18711737 -33 194 C-33 193.01 -33 192.02 -33 191 C-31.94941406 191.09539062 -30.89882813 191.19078125 -29.81640625 191.2890625 C-16.66569232 192.37672732 -6.76838849 191.5325085 3.75 182.6875 C18.00699036 165.65831708 16.75208695 143.80380497 16.63869596 122.79910254 C16.62208067 118.91690979 16.63115163 115.03475572 16.63621521 111.15254211 C16.64070403 104.65308999 16.62505066 98.15392876 16.59692383 91.65454102 C16.5647102 84.15317187 16.56496571 76.65232167 16.5821386 69.15091485 C16.59800959 61.89624218 16.59127783 54.64175887 16.57420158 47.3870945 C16.56735146 44.31343317 16.56834183 41.23992456 16.57574654 38.16626549 C16.58341947 34.55517152 16.57125167 30.94466861 16.54389763 27.33367538 C16.53376246 25.38364253 16.54317897 23.43353857 16.55322266 21.48350525 C16.48519632 12.92943742 16.48519632 12.92943742 12 6 C8.08420527 3.5313468 4.57668311 2.54484323 0 2 C0 1.34 0 0.68 0 0 Z " fill="#976A5F" transform="translate(313,141)"/>
</svg>
